<?xml version="1.0" encoding="UTF-8"?>
<svg width="387px" height="9px" viewBox="0 0 387 9" version="1.1" xmlns="http://www.w3.org/2000/svg" xmlns:xlink="http://www.w3.org/1999/xlink">
    <title>bgImgDiv</title>
    <g id="Page-1" stroke="none" stroke-width="1" fill="none" fill-rule="evenodd">
        <g id="homepage-Latest-Copy" transform="translate(-527.000000, -2655.000000)" fill="#686695" fill-rule="nonzero" stroke="#FFFFFF">
            <path d="M908.465253,2656 C892.140165,2656 883.524146,2657 875.815077,2657.83333 C868.106007,2658.66667 860.850412,2659.66667 845.885748,2659.66667 C830.921084,2659.66667 823.665489,2658.83333 815.956419,2657.83333 C807.793875,2656.83333 799.631331,2656 782.852768,2656 C766.52768,2656 757.911661,2657 750.202591,2657.83333 C742.493522,2658.66667 735.237927,2659.66667 720.273263,2659.66667 C705.308598,2659.66667 698.053004,2658.83333 690.343934,2657.83333 C682.18139,2656.83333 674.018846,2656 657.693757,2656 C641.368669,2656 632.75265,2657 625.043581,2657.83333 C617.334511,2658.66667 610.078916,2659.66667 595.114252,2659.66667 C580.149588,2659.66667 572.893993,2658.83333 565.184923,2657.83333 C557.022379,2656.83333 548.859835,2656 532.534747,2656 C529.813899,2656 528,2656.66667 528,2657.66667 C528,2658.66667 529.813899,2659.33333 532.534747,2659.33333 C547.499411,2659.33333 554.755006,2660.16667 562.464075,2661.16667 C570.62662,2662.16667 578.789164,2663 595.114252,2663 C611.43934,2663 620.055359,2662 627.764429,2661.16667 C635.473498,2660.33333 642.729093,2659.33333 657.693757,2659.33333 C672.658422,2659.33333 679.914016,2660.16667 687.623086,2661.16667 C695.78563,2662.16667 703.948174,2663 720.273263,2663 C736.598351,2663 745.21437,2662 752.923439,2661.16667 C760.632509,2660.33333 767.888104,2659.33333 782.852768,2659.33333 C797.817432,2659.33333 805.073027,2660.16667 812.782097,2661.16667 C820.944641,2662.16667 829.107185,2663 845.432273,2663 C861.757362,2663 870.37338,2662 878.535925,2661.16667 C886.244994,2660.33333 893.500589,2659.33333 908.465253,2659.33333 C911.186101,2659.33333 913,2658.66667 913,2657.66667 C913,2656.66667 911.186101,2656 908.465253,2656 Z" id="bgImgDiv"></path>
        </g>
    </g>
</svg>