<svg viewBox="0 0 36 32" fill="none" xmlns="http://www.w3.org/2000/svg">
  <path d="M14.6706 1.91045C16.1503 -0.636816 19.8497 -0.636817 21.3294 1.91045L35.4792 26.2687C36.9589 28.8159 35.1093 32 32.1498 32H3.85017C0.890723 32 -0.95893 28.8159 0.520791 26.2687L14.6706 1.91045Z" fill="#E85757"/>
  <path d="M16.5232 12.5222C16.5106 12.2376 16.7379 12 17.0227 12H18.9773C19.2621 12 19.4894 12.2376 19.4768 12.5222L19.3 16.5L18.6658 20.5769C18.6279 20.8204 18.4182 21 18.1718 21H17.8282C17.5818 21 17.3721 20.8204 17.3342 20.5769L16.7 16.5L16.5232 12.5222Z" fill="white"/>
  <circle cx="18" cy="24.5" r="1.5" fill="white"/>
</svg>
