<svg viewBox="0 0 16 14" fill="none" xmlns="http://www.w3.org/2000/svg">
  <path d="M15 11.6667C15 12.0203 14.8659 12.3594 14.6272 12.6095C14.3885 12.8595 14.0648 13 13.7273 13H2.27273C1.93518 13 1.61146 12.8595 1.37277 12.6095C1.13409 12.3594 1 12.0203 1 11.6667V4.33333C1 3.97971 1.13409 3.64057 1.37277 3.39052C1.61146 3.14048 1.93518 3 2.27273 3H4.81818L6.09091 1H9.90909L11.1818 3H13.7273C14.0648 3 14.3885 3.14048 14.6272 3.39052C14.8659 3.64057 15 3.97971 15 4.33333V11.6667Z" stroke="currentColor" stroke-width="1.2" stroke-linecap="round" stroke-linejoin="round"/>
  <path d="M8 10C9.38071 10 10.5 8.88071 10.5 7.5C10.5 6.11929 9.38071 5 8 5C6.61929 5 5.5 6.11929 5.5 7.5C5.5 8.88071 6.61929 10 8 10Z" stroke="currentColor" stroke-width="1.2" stroke-linecap="round" stroke-linejoin="round"/>
</svg>
