<svg viewBox="0 0 28 28" fill="none" xmlns="http://www.w3.org/2000/svg">
<path d="M12.8099 8.12062C13.2131 7.42646 14.2244 7.42646 14.6276 8.12062L20.6954 18.5659C21.0943 19.2527 20.5994 20.1222 19.7865 20.1222H7.65103C6.83814 20.1222 6.34318 19.2527 6.74214 18.5659L12.8099 8.12062Z" stroke="#7A7A7A" stroke-width="1.2"/>
<path d="M13.0984 12.6681C13.0858 12.3835 13.3131 12.1459 13.5979 12.1459H13.8389C14.1238 12.1459 14.3511 12.3835 14.3384 12.6681L14.2759 14.0756L14.0153 15.751C13.9925 15.8973 13.8665 16.0052 13.7184 16.0052C13.5703 16.0052 13.4443 15.8973 13.4216 15.751L13.161 14.0756L13.0984 12.6681Z" fill="#7A7A7A"/>
<ellipse cx="13.7184" cy="17.506" rx="0.643229" ry="0.643229" fill="#7A7A7A"/>
</svg>
