<svg viewBox="0 0 14 12" fill="none" xmlns="http://www.w3.org/2000/svg">
<path d="M0 4.99902C0 4.44674 0.447715 3.99902 1 3.99902H8.33333C8.88562 3.99902 9.33333 4.44674 9.33333 4.99902V10.999C9.33333 11.5513 8.88562 11.999 8.33333 11.999H0.999999C0.447714 11.999 0 11.5513 0 10.999V4.99902Z" fill="currentColor"/>
<path d="M8.11095 3.2C8.11095 2.02179 9.10587 1.06667 10.3332 1.06667C11.5605 1.06667 12.5554 2.02179 12.5554 3.2H13.6665C13.6665 1.43269 12.1741 0 10.3332 0C8.49222 0 6.99984 1.43269 6.99984 3.2V4H8.11095V3.2Z" fill="currentColor"/>
</svg>
