<svg viewBox="0 0 10 12" fill="none" xmlns="http://www.w3.org/2000/svg">
<path d="M0 4.99902C0 4.44674 0.447715 3.99902 1 3.99902H8.33333C8.88562 3.99902 9.33333 4.44674 9.33333 4.99902V10.999C9.33333 11.5513 8.88562 11.999 8.33333 11.999H0.999999C0.447714 11.999 0 11.5513 0 10.999V4.99902Z" fill="currentColor"/>
<path d="M2.44444 3.2C2.44444 2.02179 3.43937 1.06667 4.66667 1.06667C5.89397 1.06667 6.88889 2.02179 6.88889 3.2V4H8V3.2C8 1.43269 6.50762 0 4.66667 0C2.82572 0 1.33333 1.43269 1.33333 3.2V4H2.44444V3.2Z" fill="currentColor"/>
</svg>
