<svg viewBox="0 0 18 14" fill="none" xmlns="http://www.w3.org/2000/svg">
<path fill-rule="evenodd" clip-rule="evenodd" d="M9.13078 0.126828C10.6284 -0.171065 12.183 0.0595334 13.5296 0.77933C14.8762 1.49913 15.9316 2.66359 16.516 4.0743C17.1003 5.48501 17.1774 7.05469 16.7342 8.51589C16.2909 9.97709 15.3547 11.2394 14.0851 12.0877C12.8155 12.936 11.2911 13.3179 9.77146 13.1682C9.44169 13.1358 9.20068 12.8421 9.23316 12.5123C9.26564 12.1825 9.55931 11.9415 9.88908 11.974C11.1324 12.0965 12.3797 11.784 13.4185 11.0899C14.4572 10.3959 15.2232 9.36307 15.5859 8.16755C15.9485 6.97203 15.8854 5.68774 15.4073 4.53352C14.9292 3.3793 14.0657 2.42656 12.9639 1.83764C11.8621 1.24871 10.5902 1.06004 9.36489 1.30377C8.13958 1.5475 7.03668 2.20855 6.24412 3.17429C5.45156 4.14002 5.01838 5.35069 5.01838 6.60001C5.01838 6.60037 5.01838 6.60073 5.01838 6.60109L5.01838 10.1515L7.81249 7.35737C8.0468 7.12306 8.4267 7.12306 8.66102 7.35737C8.89533 7.59168 8.89533 7.97158 8.66102 8.2059L4.84264 12.0243C4.60833 12.2586 4.22843 12.2586 3.99411 12.0243L0.175736 8.2059C-0.0585786 7.97158 -0.0585786 7.59169 0.175736 7.35737C0.410051 7.12306 0.789949 7.12306 1.02426 7.35737L3.81838 10.1515V6.60001C3.81838 5.07307 4.34782 3.59336 5.31651 2.41301C6.28519 1.23267 7.63318 0.42472 9.13078 0.126828Z" fill="black"/>
</svg>
