<svg viewBox="0 0 13 13" fill="none" xmlns="http://www.w3.org/2000/svg">
<path fill-rule="evenodd" clip-rule="evenodd" d="M9.64291 5.32146C9.64291 7.70813 7.70813 9.64291 5.32146 9.64291C2.93478 9.64291 1 7.70813 1 5.32146C1 2.93478 2.93478 1 5.32146 1C7.70813 1 9.64291 2.93478 9.64291 5.32146ZM8.51662 9.57728C7.62684 10.2464 6.52046 10.6429 5.32146 10.6429C2.3825 10.6429 0 8.26041 0 5.32146C0 2.3825 2.3825 0 5.32146 0C8.26041 0 10.6429 2.3825 10.6429 5.32146C10.6429 6.52046 10.2464 7.62684 9.57728 8.51662L11.811 10.7503C12.1038 11.0432 12.1038 11.5181 11.811 11.811C11.5181 12.1038 11.0432 12.1038 10.7503 11.811L8.51662 9.57728Z" fill="currentColor"/>
</svg>
